<mxfile host="app.diagrams.net" modified="2022-05-25T14:15:56.191Z" agent="5.0 (Windows NT 10.0; Win64; x64) AppleWebKit/537.36 (KHTML, like Gecko) Chrome/101.0.4951.64 Safari/537.36 Edg/101.0.1210.53" etag="dJCwmTPJHSM915XrXVkG" version="17.2.1" type="github">
  <diagram id="KE3Y_JJDXEvooJmlkgoM" name="Page-1">
    <mxGraphModel dx="1022" dy="468" grid="0" gridSize="10" guides="1" tooltips="1" connect="1" arrows="1" fold="1" page="0" pageScale="1" pageWidth="827" pageHeight="1169" math="0" shadow="0">
      <root>
        <mxCell id="0" />
        <mxCell id="1" parent="0" />
        <mxCell id="UL9RxV9l1OQldz9KdJYa-1" value="Start" style="ellipse;whiteSpace=wrap;html=1;" parent="1" vertex="1">
          <mxGeometry x="300" y="40" width="100" height="30" as="geometry" />
        </mxCell>
        <mxCell id="UL9RxV9l1OQldz9KdJYa-2" value="" style="endArrow=classic;html=1;rounded=0;exitX=0.5;exitY=1;exitDx=0;exitDy=0;entryX=0.651;entryY=0.019;entryDx=0;entryDy=0;entryPerimeter=0;" parent="1" source="UL9RxV9l1OQldz9KdJYa-1" target="xAPefbZH91MnTpr2km9e-11" edge="1">
          <mxGeometry width="50" height="50" relative="1" as="geometry">
            <mxPoint x="360" y="280" as="sourcePoint" />
            <mxPoint x="350" y="90" as="targetPoint" />
          </mxGeometry>
        </mxCell>
        <mxCell id="UL9RxV9l1OQldz9KdJYa-8" value="" style="endArrow=classic;html=1;rounded=0;" parent="1" edge="1">
          <mxGeometry width="50" height="50" relative="1" as="geometry">
            <mxPoint x="350" y="155" as="sourcePoint" />
            <mxPoint x="350" y="203" as="targetPoint" />
          </mxGeometry>
        </mxCell>
        <mxCell id="UL9RxV9l1OQldz9KdJYa-11" value="RK11(COP1)" style="rhombus;whiteSpace=wrap;html=1;" parent="1" vertex="1">
          <mxGeometry x="290" y="290" width="120" height="50" as="geometry" />
        </mxCell>
        <mxCell id="UL9RxV9l1OQldz9KdJYa-12" value="" style="endArrow=classic;html=1;rounded=0;exitX=0.652;exitY=0.983;exitDx=0;exitDy=0;entryX=0.5;entryY=0;entryDx=0;entryDy=0;exitPerimeter=0;" parent="1" target="UL9RxV9l1OQldz9KdJYa-11" edge="1">
          <mxGeometry width="50" height="50" relative="1" as="geometry">
            <mxPoint x="350.34799999999996" y="259.06499999999994" as="sourcePoint" />
            <mxPoint x="410" y="310" as="targetPoint" />
          </mxGeometry>
        </mxCell>
        <mxCell id="UL9RxV9l1OQldz9KdJYa-13" value="" style="edgeStyle=segmentEdgeStyle;endArrow=classic;html=1;rounded=0;exitX=0.607;exitY=1.15;exitDx=0;exitDy=0;entryX=0.5;entryY=0;entryDx=0;entryDy=0;exitPerimeter=0;" parent="1" source="UL9RxV9l1OQldz9KdJYa-30" target="UL9RxV9l1OQldz9KdJYa-16" edge="1">
          <mxGeometry width="50" height="50" relative="1" as="geometry">
            <mxPoint x="256" y="315" as="sourcePoint" />
            <mxPoint x="176" y="360" as="targetPoint" />
            <Array as="points">
              <mxPoint x="292" y="315" />
              <mxPoint x="216" y="315" />
            </Array>
          </mxGeometry>
        </mxCell>
        <mxCell id="UL9RxV9l1OQldz9KdJYa-15" value="" style="edgeStyle=segmentEdgeStyle;endArrow=classic;html=1;rounded=0;exitX=1;exitY=0.5;exitDx=0;exitDy=0;entryX=0.5;entryY=0;entryDx=0;entryDy=0;" parent="1" source="UL9RxV9l1OQldz9KdJYa-11" target="UL9RxV9l1OQldz9KdJYa-17" edge="1">
          <mxGeometry width="50" height="50" relative="1" as="geometry">
            <mxPoint x="360" y="360" as="sourcePoint" />
            <mxPoint x="590" y="360" as="targetPoint" />
            <Array as="points">
              <mxPoint x="556" y="315" />
            </Array>
          </mxGeometry>
        </mxCell>
        <mxCell id="UL9RxV9l1OQldz9KdJYa-16" value="RK10(COP0)" style="rhombus;whiteSpace=wrap;html=1;" parent="1" vertex="1">
          <mxGeometry x="156" y="360" width="120" height="50" as="geometry" />
        </mxCell>
        <mxCell id="UL9RxV9l1OQldz9KdJYa-17" value="RK10(COP0)" style="rhombus;whiteSpace=wrap;html=1;" parent="1" vertex="1">
          <mxGeometry x="496" y="362" width="120" height="50" as="geometry" />
        </mxCell>
        <mxCell id="UL9RxV9l1OQldz9KdJYa-18" value="" style="endArrow=classic;html=1;rounded=0;exitX=0.5;exitY=1;exitDx=0;exitDy=0;entryX=0.5;entryY=0;entryDx=0;entryDy=0;" parent="1" source="UL9RxV9l1OQldz9KdJYa-16" target="UL9RxV9l1OQldz9KdJYa-19" edge="1">
          <mxGeometry width="50" height="50" relative="1" as="geometry">
            <mxPoint x="246" y="470" as="sourcePoint" />
            <mxPoint x="216" y="500" as="targetPoint" />
          </mxGeometry>
        </mxCell>
        <mxCell id="UL9RxV9l1OQldz9KdJYa-19" value="CF" style="rhombus;whiteSpace=wrap;html=1;" parent="1" vertex="1">
          <mxGeometry x="156" y="469" width="120" height="50" as="geometry" />
        </mxCell>
        <mxCell id="UL9RxV9l1OQldz9KdJYa-23" value="" style="edgeStyle=segmentEdgeStyle;endArrow=classic;html=1;rounded=0;exitX=0;exitY=0.5;exitDx=0;exitDy=0;entryX=0.5;entryY=0;entryDx=0;entryDy=0;" parent="1" source="UL9RxV9l1OQldz9KdJYa-16" edge="1">
          <mxGeometry width="50" height="50" relative="1" as="geometry">
            <mxPoint x="350" y="350" as="sourcePoint" />
            <mxPoint x="99" y="599" as="targetPoint" />
          </mxGeometry>
        </mxCell>
        <mxCell id="UL9RxV9l1OQldz9KdJYa-24" value="" style="endArrow=classic;html=1;rounded=0;exitX=0;exitY=0.5;exitDx=0;exitDy=0;" parent="1" source="UL9RxV9l1OQldz9KdJYa-19" edge="1">
          <mxGeometry width="50" height="50" relative="1" as="geometry">
            <mxPoint x="350" y="319" as="sourcePoint" />
            <mxPoint x="100" y="494" as="targetPoint" />
          </mxGeometry>
        </mxCell>
        <mxCell id="UL9RxV9l1OQldz9KdJYa-26" value="1" style="text;html=1;align=center;verticalAlign=middle;resizable=0;points=[];autosize=1;strokeColor=none;fillColor=none;" parent="1" vertex="1">
          <mxGeometry x="136" y="360" width="20" height="20" as="geometry" />
        </mxCell>
        <mxCell id="UL9RxV9l1OQldz9KdJYa-27" value="0" style="text;html=1;align=center;verticalAlign=middle;resizable=0;points=[];autosize=1;strokeColor=none;fillColor=none;" parent="1" vertex="1">
          <mxGeometry x="216" y="410" width="20" height="20" as="geometry" />
        </mxCell>
        <mxCell id="UL9RxV9l1OQldz9KdJYa-28" value="" style="edgeStyle=segmentEdgeStyle;endArrow=classic;html=1;rounded=0;exitX=0.5;exitY=1;exitDx=0;exitDy=0;" parent="1" source="UL9RxV9l1OQldz9KdJYa-19" edge="1">
          <mxGeometry width="50" height="50" relative="1" as="geometry">
            <mxPoint x="350" y="620" as="sourcePoint" />
            <mxPoint x="100" y="640" as="targetPoint" />
            <Array as="points">
              <mxPoint x="216" y="640" />
            </Array>
          </mxGeometry>
        </mxCell>
        <mxCell id="UL9RxV9l1OQldz9KdJYa-29" value="0" style="text;html=1;align=center;verticalAlign=middle;resizable=0;points=[];autosize=1;strokeColor=none;fillColor=none;" parent="1" vertex="1">
          <mxGeometry x="216" y="550" width="20" height="20" as="geometry" />
        </mxCell>
        <mxCell id="UL9RxV9l1OQldz9KdJYa-30" value="1" style="text;html=1;align=center;verticalAlign=middle;resizable=0;points=[];autosize=1;strokeColor=none;fillColor=none;" parent="1" vertex="1">
          <mxGeometry x="280" y="290" width="20" height="20" as="geometry" />
        </mxCell>
        <mxCell id="UL9RxV9l1OQldz9KdJYa-31" value="0" style="text;html=1;align=center;verticalAlign=middle;resizable=0;points=[];autosize=1;strokeColor=none;fillColor=none;" parent="1" vertex="1">
          <mxGeometry x="404" y="290" width="20" height="20" as="geometry" />
        </mxCell>
        <mxCell id="UL9RxV9l1OQldz9KdJYa-32" value="" style="endArrow=classic;html=1;rounded=0;exitX=0.5;exitY=1;exitDx=0;exitDy=0;entryX=0.644;entryY=0.037;entryDx=0;entryDy=0;entryPerimeter=0;" parent="1" source="UL9RxV9l1OQldz9KdJYa-17" target="xAPefbZH91MnTpr2km9e-21" edge="1">
          <mxGeometry width="50" height="50" relative="1" as="geometry">
            <mxPoint x="316" y="622" as="sourcePoint" />
            <mxPoint x="556" y="479" as="targetPoint" />
          </mxGeometry>
        </mxCell>
        <mxCell id="UL9RxV9l1OQldz9KdJYa-35" value="" style="endArrow=classic;html=1;rounded=0;exitX=0.647;exitY=0.992;exitDx=0;exitDy=0;exitPerimeter=0;" parent="1" source="xAPefbZH91MnTpr2km9e-21" edge="1">
          <mxGeometry width="50" height="50" relative="1" as="geometry">
            <mxPoint x="556" y="554" as="sourcePoint" />
            <mxPoint x="556" y="544" as="targetPoint" />
          </mxGeometry>
        </mxCell>
        <mxCell id="UL9RxV9l1OQldz9KdJYa-36" value="" style="endArrow=classic;html=1;rounded=0;entryX=0.5;entryY=0;entryDx=0;entryDy=0;" parent="1" edge="1">
          <mxGeometry width="50" height="50" relative="1" as="geometry">
            <mxPoint x="556" y="606" as="sourcePoint" />
            <mxPoint x="556" y="659" as="targetPoint" />
          </mxGeometry>
        </mxCell>
        <mxCell id="UL9RxV9l1OQldz9KdJYa-40" value="" style="endArrow=classic;html=1;rounded=0;exitX=0.5;exitY=1;exitDx=0;exitDy=0;entryX=0.5;entryY=0;entryDx=0;entryDy=0;" parent="1" edge="1">
          <mxGeometry width="50" height="50" relative="1" as="geometry">
            <mxPoint x="556" y="689" as="sourcePoint" />
            <mxPoint x="556" y="719" as="targetPoint" />
          </mxGeometry>
        </mxCell>
        <mxCell id="UL9RxV9l1OQldz9KdJYa-41" value="" style="edgeStyle=segmentEdgeStyle;endArrow=classic;html=1;rounded=0;exitX=0;exitY=0.5;exitDx=0;exitDy=0;entryX=0.5;entryY=0;entryDx=0;entryDy=0;" parent="1" source="UL9RxV9l1OQldz9KdJYa-17" edge="1">
          <mxGeometry width="50" height="50" relative="1" as="geometry">
            <mxPoint x="340" y="500" as="sourcePoint" />
            <mxPoint x="350" y="419" as="targetPoint" />
          </mxGeometry>
        </mxCell>
        <mxCell id="UL9RxV9l1OQldz9KdJYa-42" value="0" style="text;html=1;align=center;verticalAlign=middle;resizable=0;points=[];autosize=1;strokeColor=none;fillColor=none;" parent="1" vertex="1">
          <mxGeometry x="556" y="412" width="20" height="20" as="geometry" />
        </mxCell>
        <mxCell id="UL9RxV9l1OQldz9KdJYa-43" value="1" style="text;html=1;align=center;verticalAlign=middle;resizable=0;points=[];autosize=1;strokeColor=none;fillColor=none;" parent="1" vertex="1">
          <mxGeometry x="476" y="362" width="20" height="20" as="geometry" />
        </mxCell>
        <mxCell id="UL9RxV9l1OQldz9KdJYa-49" value="" style="endArrow=classic;html=1;rounded=0;exitX=0.701;exitY=0.989;exitDx=0;exitDy=0;entryX=0.5;entryY=0;entryDx=0;entryDy=0;exitPerimeter=0;" parent="1" source="xAPefbZH91MnTpr2km9e-42" edge="1">
          <mxGeometry width="50" height="50" relative="1" as="geometry">
            <mxPoint x="350" y="509" as="sourcePoint" />
            <mxPoint x="350" y="539" as="targetPoint" />
          </mxGeometry>
        </mxCell>
        <mxCell id="UL9RxV9l1OQldz9KdJYa-50" value="" style="endArrow=classic;html=1;rounded=0;entryX=0.657;entryY=-0.004;entryDx=0;entryDy=0;entryPerimeter=0;" parent="1" edge="1" target="xAPefbZH91MnTpr2km9e-49">
          <mxGeometry width="50" height="50" relative="1" as="geometry">
            <mxPoint x="350" y="564" as="sourcePoint" />
            <mxPoint x="350" y="599" as="targetPoint" />
          </mxGeometry>
        </mxCell>
        <mxCell id="UL9RxV9l1OQldz9KdJYa-54" value="" style="endArrow=classic;html=1;rounded=0;exitX=0.5;exitY=1;exitDx=0;exitDy=0;entryX=0.5;entryY=0;entryDx=0;entryDy=0;" parent="1" edge="1">
          <mxGeometry width="50" height="50" relative="1" as="geometry">
            <mxPoint x="350" y="689" as="sourcePoint" />
            <mxPoint x="350" y="719" as="targetPoint" />
          </mxGeometry>
        </mxCell>
        <mxCell id="UL9RxV9l1OQldz9KdJYa-56" value="" style="endArrow=classic;html=1;rounded=0;exitX=0.5;exitY=1;exitDx=0;exitDy=0;entryX=0.5;entryY=0;entryDx=0;entryDy=0;" parent="1" edge="1">
          <mxGeometry width="50" height="50" relative="1" as="geometry">
            <mxPoint x="350" y="749" as="sourcePoint" />
            <mxPoint x="350" y="779" as="targetPoint" />
          </mxGeometry>
        </mxCell>
        <mxCell id="UL9RxV9l1OQldz9KdJYa-58" value="" style="endArrow=classic;html=1;rounded=0;exitX=0.5;exitY=1;exitDx=0;exitDy=0;entryX=0.5;entryY=0;entryDx=0;entryDy=0;" parent="1" edge="1">
          <mxGeometry width="50" height="50" relative="1" as="geometry">
            <mxPoint x="350" y="809" as="sourcePoint" />
            <mxPoint x="350" y="839" as="targetPoint" />
          </mxGeometry>
        </mxCell>
        <mxCell id="UL9RxV9l1OQldz9KdJYa-59" value="END" style="ellipse;whiteSpace=wrap;html=1;" parent="1" vertex="1">
          <mxGeometry x="290" y="915" width="120" height="40" as="geometry" />
        </mxCell>
        <mxCell id="UL9RxV9l1OQldz9KdJYa-60" value="" style="endArrow=classic;html=1;rounded=0;exitX=0.5;exitY=1;exitDx=0;exitDy=0;entryX=0.5;entryY=0;entryDx=0;entryDy=0;" parent="1" target="UL9RxV9l1OQldz9KdJYa-59" edge="1">
          <mxGeometry width="50" height="50" relative="1" as="geometry">
            <mxPoint x="350" y="869" as="sourcePoint" />
            <mxPoint x="345.5" y="822" as="targetPoint" />
          </mxGeometry>
        </mxCell>
        <mxCell id="UL9RxV9l1OQldz9KdJYa-63" value="" style="edgeStyle=segmentEdgeStyle;endArrow=classic;html=1;rounded=0;exitX=0.5;exitY=1;exitDx=0;exitDy=0;" parent="1" edge="1">
          <mxGeometry width="50" height="50" relative="1" as="geometry">
            <mxPoint x="99" y="629" as="sourcePoint" />
            <mxPoint x="350" y="893" as="targetPoint" />
            <Array as="points">
              <mxPoint x="100" y="893" />
            </Array>
          </mxGeometry>
        </mxCell>
        <mxCell id="UL9RxV9l1OQldz9KdJYa-65" value="" style="edgeStyle=segmentEdgeStyle;endArrow=classic;html=1;rounded=0;" parent="1" source="xAPefbZH91MnTpr2km9e-36" edge="1">
          <mxGeometry width="50" height="50" relative="1" as="geometry">
            <mxPoint x="556" y="855" as="sourcePoint" />
            <mxPoint x="352" y="897" as="targetPoint" />
            <Array as="points">
              <mxPoint x="556" y="897" />
            </Array>
          </mxGeometry>
        </mxCell>
        <mxCell id="UL9RxV9l1OQldz9KdJYa-66" value="1" style="text;html=1;align=center;verticalAlign=middle;resizable=0;points=[];autosize=1;strokeColor=none;fillColor=none;" parent="1" vertex="1">
          <mxGeometry x="99" y="15" width="17" height="18" as="geometry" />
        </mxCell>
        <mxCell id="UL9RxV9l1OQldz9KdJYa-67" value="2" style="text;html=1;align=center;verticalAlign=middle;resizable=0;points=[];autosize=1;strokeColor=none;fillColor=none;" parent="1" vertex="1">
          <mxGeometry x="203" y="15" width="17" height="18" as="geometry" />
        </mxCell>
        <mxCell id="UL9RxV9l1OQldz9KdJYa-68" value="3" style="text;html=1;align=center;verticalAlign=middle;resizable=0;points=[];autosize=1;strokeColor=none;fillColor=none;" parent="1" vertex="1">
          <mxGeometry x="345" y="15" width="17" height="18" as="geometry" />
        </mxCell>
        <mxCell id="UL9RxV9l1OQldz9KdJYa-69" value="4" style="text;html=1;align=center;verticalAlign=middle;resizable=0;points=[];autosize=1;strokeColor=none;fillColor=none;" parent="1" vertex="1">
          <mxGeometry x="547.5" y="15" width="17" height="18" as="geometry" />
        </mxCell>
        <mxCell id="UL9RxV9l1OQldz9KdJYa-70" value="A" style="text;html=1;align=center;verticalAlign=middle;resizable=0;points=[];autosize=1;strokeColor=none;fillColor=none;" parent="1" vertex="1">
          <mxGeometry x="14" y="46" width="18" height="18" as="geometry" />
        </mxCell>
        <mxCell id="UL9RxV9l1OQldz9KdJYa-71" value="B" style="text;html=1;align=center;verticalAlign=middle;resizable=0;points=[];autosize=1;strokeColor=none;fillColor=none;" parent="1" vertex="1">
          <mxGeometry x="14" y="120.5" width="18" height="18" as="geometry" />
        </mxCell>
        <mxCell id="UL9RxV9l1OQldz9KdJYa-72" value="C" style="text;html=1;align=center;verticalAlign=middle;resizable=0;points=[];autosize=1;strokeColor=none;fillColor=none;" parent="1" vertex="1">
          <mxGeometry x="16.5" y="223.5" width="19" height="18" as="geometry" />
        </mxCell>
        <mxCell id="UL9RxV9l1OQldz9KdJYa-73" value="D" style="text;html=1;align=center;verticalAlign=middle;resizable=0;points=[];autosize=1;strokeColor=none;fillColor=none;" parent="1" vertex="1">
          <mxGeometry x="16.5" y="306" width="19" height="18" as="geometry" />
        </mxCell>
        <mxCell id="UL9RxV9l1OQldz9KdJYa-76" value="E" style="text;html=1;align=center;verticalAlign=middle;resizable=0;points=[];autosize=1;strokeColor=none;fillColor=none;" parent="1" vertex="1">
          <mxGeometry x="14.5" y="378" width="18" height="18" as="geometry" />
        </mxCell>
        <mxCell id="UL9RxV9l1OQldz9KdJYa-77" value="F" style="text;html=1;align=center;verticalAlign=middle;resizable=0;points=[];autosize=1;strokeColor=none;fillColor=none;" parent="1" vertex="1">
          <mxGeometry x="14.5" y="437.5" width="17" height="18" as="geometry" />
        </mxCell>
        <mxCell id="UL9RxV9l1OQldz9KdJYa-78" value="G" style="text;html=1;align=center;verticalAlign=middle;resizable=0;points=[];autosize=1;strokeColor=none;fillColor=none;" parent="1" vertex="1">
          <mxGeometry x="13.5" y="485" width="19" height="18" as="geometry" />
        </mxCell>
        <mxCell id="UL9RxV9l1OQldz9KdJYa-79" value="H" style="text;html=1;align=center;verticalAlign=middle;resizable=0;points=[];autosize=1;strokeColor=none;fillColor=none;" parent="1" vertex="1">
          <mxGeometry x="14.5" y="548" width="19" height="18" as="geometry" />
        </mxCell>
        <mxCell id="UL9RxV9l1OQldz9KdJYa-80" value="I" style="text;html=1;align=center;verticalAlign=middle;resizable=0;points=[];autosize=1;strokeColor=none;fillColor=none;" parent="1" vertex="1">
          <mxGeometry x="16.5" y="605" width="13" height="18" as="geometry" />
        </mxCell>
        <mxCell id="UL9RxV9l1OQldz9KdJYa-81" value="J" style="text;html=1;align=center;verticalAlign=middle;resizable=0;points=[];autosize=1;strokeColor=none;fillColor=none;" parent="1" vertex="1">
          <mxGeometry x="13.5" y="664" width="16" height="18" as="geometry" />
        </mxCell>
        <mxCell id="UL9RxV9l1OQldz9KdJYa-82" value="K" style="text;html=1;align=center;verticalAlign=middle;resizable=0;points=[];autosize=1;strokeColor=none;fillColor=none;" parent="1" vertex="1">
          <mxGeometry x="13" y="731" width="18" height="18" as="geometry" />
        </mxCell>
        <mxCell id="UL9RxV9l1OQldz9KdJYa-83" value="L" style="text;html=1;align=center;verticalAlign=middle;resizable=0;points=[];autosize=1;strokeColor=none;fillColor=none;" parent="1" vertex="1">
          <mxGeometry x="14.5" y="790" width="17" height="18" as="geometry" />
        </mxCell>
        <mxCell id="UL9RxV9l1OQldz9KdJYa-84" value="M" style="text;html=1;align=center;verticalAlign=middle;resizable=0;points=[];autosize=1;strokeColor=none;fillColor=none;" parent="1" vertex="1">
          <mxGeometry x="13" y="848" width="20" height="18" as="geometry" />
        </mxCell>
        <mxCell id="UL9RxV9l1OQldz9KdJYa-85" value="N" style="text;html=1;align=center;verticalAlign=middle;resizable=0;points=[];autosize=1;strokeColor=none;fillColor=none;" parent="1" vertex="1">
          <mxGeometry x="17.5" y="926" width="19" height="18" as="geometry" />
        </mxCell>
        <mxCell id="UL9RxV9l1OQldz9KdJYa-87" value="" style="endArrow=classic;html=1;rounded=0;exitX=0.5;exitY=1;exitDx=0;exitDy=0;entryX=0.5;entryY=0;entryDx=0;entryDy=0;" parent="1" edge="1">
          <mxGeometry width="50" height="50" relative="1" as="geometry">
            <mxPoint x="556" y="749" as="sourcePoint" />
            <mxPoint x="556" y="782" as="targetPoint" />
          </mxGeometry>
        </mxCell>
        <mxCell id="7RNchvcQetN7JXkEwD7B-1" value="1" style="text;html=1;align=center;verticalAlign=middle;resizable=0;points=[];autosize=1;strokeColor=none;fillColor=none;" parent="1" vertex="1">
          <mxGeometry x="136" y="469" width="20" height="20" as="geometry" />
        </mxCell>
        <mxCell id="xAPefbZH91MnTpr2km9e-9" value="A" style="strokeWidth=1;shadow=0;dashed=0;align=center;html=1;rSize=10;fillColor=#ffffff;strokeColor=#666666;" parent="1" vertex="1">
          <mxGeometry x="269.5" y="102" width="168" height="55" as="geometry" />
        </mxCell>
        <mxCell id="xAPefbZH91MnTpr2km9e-10" value="&lt;font style=&quot;font-size: 12px;&quot;&gt;YC1&lt;br&gt;YC5&lt;br&gt;YC14&lt;br&gt;&lt;/font&gt;" style="strokeColor=inherit;fillColor=inherit;gradientColor=inherit;strokeWidth=1;shadow=0;dashed=0;align=center;html=1;shape=mxgraph.mockup.rrect;rSize=0;fontSize=12;fontColor=#666666;fontStyle=1;resizeHeight=1;" parent="xAPefbZH91MnTpr2km9e-9" vertex="1">
          <mxGeometry width="47" height="55" relative="1" as="geometry">
            <mxPoint x="123" as="offset" />
          </mxGeometry>
        </mxCell>
        <mxCell id="xAPefbZH91MnTpr2km9e-11" value="&lt;p&gt;&lt;span style=&quot;color: rgb(0, 0, 0); font-size: 12px; font-weight: 400;&quot;&gt;RK1 := rd(CK)op&lt;br&gt;&lt;/span&gt;&lt;span style=&quot;color: rgb(0, 0, 0); font-size: 12px; font-weight: 400;&quot;&gt;CK := CK + 1&lt;/span&gt;&lt;span style=&quot;color: rgb(0, 0, 0); font-size: 12px; font-weight: 400;&quot;&gt;&lt;br&gt;&lt;/span&gt;&lt;/p&gt;" style="strokeWidth=1;shadow=0;dashed=0;align=center;html=1;rSize=10;fontSize=17;fontColor=#666666;fontStyle=1;resizeHeight=1;" parent="xAPefbZH91MnTpr2km9e-9" vertex="1">
          <mxGeometry width="124" height="55" relative="1" as="geometry">
            <mxPoint as="offset" />
          </mxGeometry>
        </mxCell>
        <mxCell id="xAPefbZH91MnTpr2km9e-16" value="A" style="strokeWidth=1;shadow=0;dashed=0;align=center;html=1;rSize=10;fillColor=#ffffff;strokeColor=#666666;" parent="1" vertex="1">
          <mxGeometry x="270" y="205" width="168" height="55" as="geometry" />
        </mxCell>
        <mxCell id="xAPefbZH91MnTpr2km9e-17" value="&lt;font style=&quot;font-size: 12px;&quot;&gt;YC2&lt;br&gt;YC5&lt;br&gt;YC14&lt;br&gt;&lt;/font&gt;" style="strokeColor=inherit;fillColor=inherit;gradientColor=inherit;strokeWidth=1;shadow=0;dashed=0;align=center;html=1;shape=mxgraph.mockup.rrect;rSize=0;fontSize=12;fontColor=#666666;fontStyle=1;resizeHeight=1;" parent="xAPefbZH91MnTpr2km9e-16" vertex="1">
          <mxGeometry width="47" height="55" relative="1" as="geometry">
            <mxPoint x="123" as="offset" />
          </mxGeometry>
        </mxCell>
        <mxCell id="xAPefbZH91MnTpr2km9e-18" value="&lt;p&gt;&lt;span style=&quot;color: rgb(0, 0, 0); font-size: 12px; font-weight: 400;&quot;&gt;RK2 := rd(CK)op&lt;br&gt;&lt;/span&gt;&lt;span style=&quot;color: rgb(0, 0, 0); font-size: 12px; font-weight: 400;&quot;&gt;CK := CK + 1&lt;/span&gt;&lt;span style=&quot;color: rgb(0, 0, 0); font-size: 12px; font-weight: 400;&quot;&gt;&lt;br&gt;&lt;/span&gt;&lt;/p&gt;" style="strokeWidth=1;shadow=0;dashed=0;align=center;html=1;rSize=10;fontSize=17;fontColor=#666666;fontStyle=1;resizeHeight=1;" parent="xAPefbZH91MnTpr2km9e-16" vertex="1">
          <mxGeometry width="124" height="55" relative="1" as="geometry">
            <mxPoint as="offset" />
          </mxGeometry>
        </mxCell>
        <mxCell id="xAPefbZH91MnTpr2km9e-19" value="A" style="strokeWidth=1;shadow=0;dashed=0;align=center;html=1;rSize=10;fillColor=#ffffff;strokeColor=#666666;" parent="1" vertex="1">
          <mxGeometry x="476" y="481" width="168" height="28" as="geometry" />
        </mxCell>
        <mxCell id="xAPefbZH91MnTpr2km9e-20" value="&lt;font style=&quot;font-size: 12px;&quot;&gt;YC9&lt;br&gt;&lt;/font&gt;" style="strokeColor=inherit;fillColor=inherit;gradientColor=inherit;strokeWidth=1;shadow=0;dashed=0;align=center;html=1;shape=mxgraph.mockup.rrect;rSize=0;fontSize=12;fontColor=#666666;fontStyle=1;resizeHeight=1;" parent="xAPefbZH91MnTpr2km9e-19" vertex="1">
          <mxGeometry width="47" height="28" relative="1" as="geometry">
            <mxPoint x="123" as="offset" />
          </mxGeometry>
        </mxCell>
        <mxCell id="xAPefbZH91MnTpr2km9e-21" value="&lt;p&gt;&lt;span style=&quot;color: rgb(0, 0, 0); font-size: 12px; font-weight: 400;&quot;&gt;BR1 := rd(R1)rp&lt;/span&gt;&lt;span style=&quot;color: rgb(0, 0, 0); font-size: 12px; font-weight: 400;&quot;&gt;&lt;br&gt;&lt;/span&gt;&lt;/p&gt;" style="strokeWidth=1;shadow=0;dashed=0;align=center;html=1;rSize=10;fontSize=17;fontColor=#666666;fontStyle=1;resizeHeight=1;" parent="xAPefbZH91MnTpr2km9e-19" vertex="1">
          <mxGeometry width="124" height="28" relative="1" as="geometry">
            <mxPoint as="offset" />
          </mxGeometry>
        </mxCell>
        <mxCell id="xAPefbZH91MnTpr2km9e-22" value="A" style="strokeWidth=1;shadow=0;dashed=0;align=center;html=1;rSize=10;fillColor=#ffffff;strokeColor=#666666;" parent="1" vertex="1">
          <mxGeometry x="476" y="545" width="168" height="60" as="geometry" />
        </mxCell>
        <mxCell id="xAPefbZH91MnTpr2km9e-23" value="&lt;font style=&quot;font-size: 12px;&quot;&gt;YC8&lt;br&gt;YC10&lt;br&gt;YC11&lt;br&gt;SNO&lt;br&gt;&lt;/font&gt;" style="strokeColor=inherit;fillColor=inherit;gradientColor=inherit;strokeWidth=1;shadow=0;dashed=0;align=center;html=1;shape=mxgraph.mockup.rrect;rSize=0;fontSize=12;fontColor=#666666;fontStyle=1;resizeHeight=1;" parent="xAPefbZH91MnTpr2km9e-22" vertex="1">
          <mxGeometry width="47" height="60" relative="1" as="geometry">
            <mxPoint x="123" as="offset" />
          </mxGeometry>
        </mxCell>
        <mxCell id="xAPefbZH91MnTpr2km9e-24" value="&lt;p&gt;&lt;span style=&quot;color: rgb(0, 0, 0); font-size: 12px; font-weight: 400;&quot;&gt;BR2 := rd(R2 + 1)rp&lt;/span&gt;&lt;span style=&quot;color: rgb(0, 0, 0); font-size: 12px; font-weight: 400;&quot;&gt;&lt;br&gt;&lt;/span&gt;&lt;/p&gt;" style="strokeWidth=1;shadow=0;dashed=0;align=center;html=1;rSize=10;fontSize=17;fontColor=#666666;fontStyle=1;resizeHeight=1;" parent="xAPefbZH91MnTpr2km9e-22" vertex="1">
          <mxGeometry width="124" height="60" relative="1" as="geometry">
            <mxPoint as="offset" />
          </mxGeometry>
        </mxCell>
        <mxCell id="xAPefbZH91MnTpr2km9e-25" value="" style="strokeWidth=1;shadow=0;dashed=0;align=center;html=1;rSize=10;fillColor=#ffffff;strokeColor=#666666;" parent="1" vertex="1">
          <mxGeometry x="472" y="659" width="168" height="28" as="geometry" />
        </mxCell>
        <mxCell id="xAPefbZH91MnTpr2km9e-26" value="&lt;font style=&quot;font-size: 12px;&quot;&gt;SKO&lt;br&gt;&lt;/font&gt;" style="strokeColor=inherit;fillColor=inherit;gradientColor=inherit;strokeWidth=1;shadow=0;dashed=0;align=center;html=1;shape=mxgraph.mockup.rrect;rSize=0;fontSize=12;fontColor=#666666;fontStyle=1;resizeHeight=1;" parent="xAPefbZH91MnTpr2km9e-25" vertex="1">
          <mxGeometry width="47" height="28" relative="1" as="geometry">
            <mxPoint x="123" as="offset" />
          </mxGeometry>
        </mxCell>
        <mxCell id="xAPefbZH91MnTpr2km9e-28" value="АЛУ" style="shape=process;whiteSpace=wrap;html=1;backgroundOutline=1;" parent="xAPefbZH91MnTpr2km9e-25" vertex="1">
          <mxGeometry x="1" width="121" height="28" as="geometry" />
        </mxCell>
        <mxCell id="xAPefbZH91MnTpr2km9e-29" value="A" style="strokeWidth=1;shadow=0;dashed=0;align=center;html=1;rSize=10;fillColor=#ffffff;strokeColor=#666666;" parent="1" vertex="1">
          <mxGeometry x="472" y="721" width="168" height="28" as="geometry" />
        </mxCell>
        <mxCell id="xAPefbZH91MnTpr2km9e-30" value="&lt;font style=&quot;font-size: 12px;&quot;&gt;YC6&lt;br&gt;YC10&lt;br&gt;&lt;/font&gt;" style="strokeColor=inherit;fillColor=inherit;gradientColor=inherit;strokeWidth=1;shadow=0;dashed=0;align=center;html=1;shape=mxgraph.mockup.rrect;rSize=0;fontSize=12;fontColor=#666666;fontStyle=1;resizeHeight=1;" parent="xAPefbZH91MnTpr2km9e-29" vertex="1">
          <mxGeometry width="47" height="28" relative="1" as="geometry">
            <mxPoint x="123" as="offset" />
          </mxGeometry>
        </mxCell>
        <mxCell id="xAPefbZH91MnTpr2km9e-31" value="&lt;p&gt;&lt;span style=&quot;color: rgb(0, 0, 0); font-size: 12px; font-weight: 400;&quot;&gt;wr(R2)rp := RRст&lt;/span&gt;&lt;span style=&quot;color: rgb(0, 0, 0); font-size: 12px; font-weight: 400;&quot;&gt;&lt;br&gt;&lt;/span&gt;&lt;/p&gt;" style="strokeWidth=1;shadow=0;dashed=0;align=center;html=1;rSize=10;fontSize=17;fontColor=#666666;fontStyle=1;resizeHeight=1;" parent="xAPefbZH91MnTpr2km9e-29" vertex="1">
          <mxGeometry width="124" height="28" relative="1" as="geometry">
            <mxPoint as="offset" />
          </mxGeometry>
        </mxCell>
        <mxCell id="xAPefbZH91MnTpr2km9e-34" value="A" style="strokeWidth=1;shadow=0;dashed=0;align=center;html=1;rSize=10;fillColor=#ffffff;strokeColor=#666666;" parent="1" vertex="1">
          <mxGeometry x="472" y="785" width="168" height="60" as="geometry" />
        </mxCell>
        <mxCell id="xAPefbZH91MnTpr2km9e-35" value="&lt;font style=&quot;font-size: 12px;&quot;&gt;YC6&lt;br&gt;YC10&lt;br&gt;YC11&lt;br&gt;YC12&lt;br&gt;&lt;/font&gt;" style="strokeColor=inherit;fillColor=inherit;gradientColor=inherit;strokeWidth=1;shadow=0;dashed=0;align=center;html=1;shape=mxgraph.mockup.rrect;rSize=0;fontSize=12;fontColor=#666666;fontStyle=1;resizeHeight=1;" parent="xAPefbZH91MnTpr2km9e-34" vertex="1">
          <mxGeometry width="47" height="59.99999999999999" relative="1" as="geometry">
            <mxPoint x="123" as="offset" />
          </mxGeometry>
        </mxCell>
        <mxCell id="xAPefbZH91MnTpr2km9e-36" value="&lt;p&gt;&lt;span style=&quot;color: rgb(0, 0, 0); font-size: 12px; font-weight: 400;&quot;&gt;wr(R2 + 1)rp := RRмл&lt;/span&gt;&lt;span style=&quot;color: rgb(0, 0, 0); font-size: 12px; font-weight: 400;&quot;&gt;&lt;br&gt;&lt;/span&gt;&lt;/p&gt;" style="strokeWidth=1;shadow=0;dashed=0;align=center;html=1;rSize=10;fontSize=17;fontColor=#666666;fontStyle=1;resizeHeight=1;" parent="xAPefbZH91MnTpr2km9e-34" vertex="1">
          <mxGeometry width="124" height="59.99999999999999" relative="1" as="geometry">
            <mxPoint as="offset" />
          </mxGeometry>
        </mxCell>
        <mxCell id="xAPefbZH91MnTpr2km9e-37" value="A" style="strokeWidth=1;shadow=0;dashed=0;align=center;html=1;rSize=10;fillColor=#ffffff;strokeColor=#666666;" parent="1" vertex="1">
          <mxGeometry x="29.5" y="599" width="168" height="28" as="geometry" />
        </mxCell>
        <mxCell id="xAPefbZH91MnTpr2km9e-38" value="&lt;font style=&quot;font-size: 12px;&quot;&gt;YC4&lt;br&gt;&lt;/font&gt;" style="strokeColor=inherit;fillColor=inherit;gradientColor=inherit;strokeWidth=1;shadow=0;dashed=0;align=center;html=1;shape=mxgraph.mockup.rrect;rSize=0;fontSize=12;fontColor=#666666;fontStyle=1;resizeHeight=1;" parent="xAPefbZH91MnTpr2km9e-37" vertex="1">
          <mxGeometry width="47" height="28" relative="1" as="geometry">
            <mxPoint x="123" as="offset" />
          </mxGeometry>
        </mxCell>
        <mxCell id="xAPefbZH91MnTpr2km9e-39" value="&lt;p&gt;&lt;span style=&quot;color: rgb(0, 0, 0); font-size: 12px; font-weight: 400;&quot;&gt;CK := CK + OFF&lt;/span&gt;&lt;span style=&quot;color: rgb(0, 0, 0); font-size: 12px; font-weight: 400;&quot;&gt;&lt;br&gt;&lt;/span&gt;&lt;/p&gt;" style="strokeWidth=1;shadow=0;dashed=0;align=center;html=1;rSize=10;fontSize=17;fontColor=#666666;fontStyle=1;resizeHeight=1;" parent="xAPefbZH91MnTpr2km9e-37" vertex="1">
          <mxGeometry width="124" height="28" relative="1" as="geometry">
            <mxPoint as="offset" />
          </mxGeometry>
        </mxCell>
        <mxCell id="xAPefbZH91MnTpr2km9e-40" value="A" style="strokeWidth=1;shadow=0;dashed=0;align=center;html=1;rSize=10;fillColor=#ffffff;strokeColor=#666666;" parent="1" vertex="1">
          <mxGeometry x="280" y="419" width="141.5" height="55" as="geometry" />
        </mxCell>
        <mxCell id="xAPefbZH91MnTpr2km9e-41" value="&lt;font style=&quot;font-size: 12px;&quot;&gt;YC3&lt;br&gt;YC5&lt;br&gt;YC14&lt;br&gt;&lt;/font&gt;" style="strokeColor=inherit;fillColor=inherit;gradientColor=inherit;strokeWidth=1;shadow=0;dashed=0;align=center;html=1;shape=mxgraph.mockup.rrect;rSize=0;fontSize=12;fontColor=#666666;fontStyle=1;resizeHeight=1;" parent="xAPefbZH91MnTpr2km9e-40" vertex="1">
          <mxGeometry width="43" height="55" relative="1" as="geometry">
            <mxPoint x="99" as="offset" />
          </mxGeometry>
        </mxCell>
        <mxCell id="xAPefbZH91MnTpr2km9e-42" value="&lt;p&gt;&lt;span style=&quot;color: rgb(0, 0, 0); font-size: 12px; font-weight: 400;&quot;&gt;RK3 := rd(CK)op&lt;/span&gt;&lt;span style=&quot;color: rgb(0, 0, 0); font-size: 12px; font-weight: 400;&quot;&gt;&lt;br&gt;&lt;/span&gt;&lt;span style=&quot;color: rgb(0, 0, 0); font-size: 12px; font-weight: 400;&quot;&gt;CK := CK + 1&lt;/span&gt;&lt;span style=&quot;color: rgb(0, 0, 0); font-size: 12px; font-weight: 400;&quot;&gt;&lt;br&gt;&lt;/span&gt;&lt;/p&gt;" style="strokeWidth=1;shadow=0;dashed=0;align=center;html=1;rSize=10;fontSize=17;fontColor=#666666;fontStyle=1;resizeHeight=1;" parent="xAPefbZH91MnTpr2km9e-40" vertex="1">
          <mxGeometry width="100" height="55" relative="1" as="geometry">
            <mxPoint as="offset" />
          </mxGeometry>
        </mxCell>
        <mxCell id="xAPefbZH91MnTpr2km9e-44" value="A" style="strokeWidth=1;shadow=0;dashed=0;align=center;html=1;rSize=10;fillColor=#ffffff;strokeColor=#666666;" parent="1" vertex="1">
          <mxGeometry x="266.75" y="538" width="168" height="28" as="geometry" />
        </mxCell>
        <mxCell id="xAPefbZH91MnTpr2km9e-45" value="&lt;font style=&quot;font-size: 12px;&quot;&gt;YC11&lt;br&gt;YC15&lt;br&gt;&lt;/font&gt;" style="strokeColor=inherit;fillColor=inherit;gradientColor=inherit;strokeWidth=1;shadow=0;dashed=0;align=center;html=1;shape=mxgraph.mockup.rrect;rSize=0;fontSize=12;fontColor=#666666;fontStyle=1;resizeHeight=1;" parent="xAPefbZH91MnTpr2km9e-44" vertex="1">
          <mxGeometry width="47" height="28" relative="1" as="geometry">
            <mxPoint x="123" as="offset" />
          </mxGeometry>
        </mxCell>
        <mxCell id="xAPefbZH91MnTpr2km9e-46" value="&lt;p&gt;&lt;span style=&quot;color: rgb(0, 0, 0); font-size: 12px; font-weight: 400;&quot;&gt;RIA := rd(rd(RI2)rp)op&lt;/span&gt;&lt;span style=&quot;color: rgb(0, 0, 0); font-size: 12px; font-weight: 400;&quot;&gt;&lt;br&gt;&lt;/span&gt;&lt;/p&gt;" style="strokeWidth=1;shadow=0;dashed=0;align=center;html=1;rSize=10;fontSize=17;fontColor=#666666;fontStyle=1;resizeHeight=1;" parent="xAPefbZH91MnTpr2km9e-44" vertex="1">
          <mxGeometry width="124" height="28" relative="1" as="geometry">
            <mxPoint as="offset" />
          </mxGeometry>
        </mxCell>
        <mxCell id="xAPefbZH91MnTpr2km9e-47" value="A" style="strokeWidth=1;shadow=0;dashed=0;align=center;html=1;rSize=10;fillColor=#ffffff;strokeColor=#666666;" parent="1" vertex="1">
          <mxGeometry x="256" y="621" width="190" height="66" as="geometry" />
        </mxCell>
        <mxCell id="xAPefbZH91MnTpr2km9e-48" value="&lt;font style=&quot;font-size: 12px&quot;&gt;YC11&lt;br&gt;YC6&lt;br&gt;YC13&lt;br&gt;YC8&lt;br&gt;&lt;/font&gt;" style="strokeColor=inherit;fillColor=inherit;gradientColor=inherit;strokeWidth=1;shadow=0;dashed=0;align=center;html=1;shape=mxgraph.mockup.rrect;rSize=0;fontSize=12;fontColor=#666666;fontStyle=1;resizeHeight=1;" parent="xAPefbZH91MnTpr2km9e-47" vertex="1">
          <mxGeometry width="47" height="66" relative="1" as="geometry">
            <mxPoint x="143" as="offset" />
          </mxGeometry>
        </mxCell>
        <mxCell id="xAPefbZH91MnTpr2km9e-49" value="&lt;p&gt;&lt;span style=&quot;color: rgb(0 , 0 , 0) ; font-size: 12px ; font-weight: 400&quot;&gt;wr(RI2)rp := rd(RI2)rp - 1&lt;br&gt;&lt;/span&gt;&lt;span style=&quot;color: rgb(0 , 0 , 0) ; font-size: 12px ; font-weight: 400&quot;&gt;BR2 := rd(RIA)op[мл/ст]&lt;/span&gt;&lt;span style=&quot;color: rgb(0 , 0 , 0) ; font-size: 12px ; font-weight: 400&quot;&gt;&lt;br&gt;&lt;/span&gt;&lt;/p&gt;" style="strokeWidth=1;shadow=0;dashed=0;align=center;html=1;rSize=10;fontSize=17;fontColor=#666666;fontStyle=1;resizeHeight=1;" parent="xAPefbZH91MnTpr2km9e-47" vertex="1">
          <mxGeometry width="143" height="66" relative="1" as="geometry">
            <mxPoint as="offset" />
          </mxGeometry>
        </mxCell>
        <mxCell id="xAPefbZH91MnTpr2km9e-53" value="A" style="strokeWidth=1;shadow=0;dashed=0;align=center;html=1;rSize=10;fillColor=#ffffff;strokeColor=#666666;" parent="1" vertex="1">
          <mxGeometry x="274.75" y="720" width="152" height="28" as="geometry" />
        </mxCell>
        <mxCell id="xAPefbZH91MnTpr2km9e-54" value="&lt;font style=&quot;font-size: 12px;&quot;&gt;YC9&lt;br&gt;SNO&lt;br&gt;&lt;/font&gt;" style="strokeColor=inherit;fillColor=inherit;gradientColor=inherit;strokeWidth=1;shadow=0;dashed=0;align=center;html=1;shape=mxgraph.mockup.rrect;rSize=0;fontSize=12;fontColor=#666666;fontStyle=1;resizeHeight=1;" parent="xAPefbZH91MnTpr2km9e-53" vertex="1">
          <mxGeometry width="47" height="28" relative="1" as="geometry">
            <mxPoint x="105" as="offset" />
          </mxGeometry>
        </mxCell>
        <mxCell id="xAPefbZH91MnTpr2km9e-55" value="&lt;p&gt;&lt;span style=&quot;color: rgb(0, 0, 0); font-size: 12px; font-weight: 400;&quot;&gt;BR1 := N1&lt;/span&gt;&lt;span style=&quot;color: rgb(0, 0, 0); font-size: 12px; font-weight: 400;&quot;&gt;&lt;br&gt;&lt;/span&gt;&lt;/p&gt;" style="strokeWidth=1;shadow=0;dashed=0;align=center;html=1;rSize=10;fontSize=17;fontColor=#666666;fontStyle=1;resizeHeight=1;" parent="xAPefbZH91MnTpr2km9e-53" vertex="1">
          <mxGeometry width="105" height="28" relative="1" as="geometry">
            <mxPoint as="offset" />
          </mxGeometry>
        </mxCell>
        <mxCell id="OzIiqpgJKj1dJZe_acPl-1" value="" style="strokeWidth=1;shadow=0;dashed=0;align=center;html=1;rSize=10;fillColor=#ffffff;strokeColor=#666666;" parent="1" vertex="1">
          <mxGeometry x="266" y="780" width="168" height="28" as="geometry" />
        </mxCell>
        <mxCell id="OzIiqpgJKj1dJZe_acPl-2" value="&lt;font style=&quot;font-size: 12px;&quot;&gt;SKO&lt;br&gt;&lt;/font&gt;" style="strokeColor=inherit;fillColor=inherit;gradientColor=inherit;strokeWidth=1;shadow=0;dashed=0;align=center;html=1;shape=mxgraph.mockup.rrect;rSize=0;fontSize=12;fontColor=#666666;fontStyle=1;resizeHeight=1;" parent="OzIiqpgJKj1dJZe_acPl-1" vertex="1">
          <mxGeometry width="47" height="28" relative="1" as="geometry">
            <mxPoint x="123" as="offset" />
          </mxGeometry>
        </mxCell>
        <mxCell id="OzIiqpgJKj1dJZe_acPl-3" value="АЛУ" style="shape=process;whiteSpace=wrap;html=1;backgroundOutline=1;" parent="OzIiqpgJKj1dJZe_acPl-1" vertex="1">
          <mxGeometry x="1" width="121" height="28" as="geometry" />
        </mxCell>
        <mxCell id="OzIiqpgJKj1dJZe_acPl-4" value="A" style="strokeWidth=1;shadow=0;dashed=0;align=center;html=1;rSize=10;fillColor=#ffffff;strokeColor=#666666;" parent="1" vertex="1">
          <mxGeometry x="275" y="840" width="152" height="28" as="geometry" />
        </mxCell>
        <mxCell id="OzIiqpgJKj1dJZe_acPl-5" value="&lt;font style=&quot;font-size: 12px;&quot;&gt;YC13&lt;br&gt;YC7&lt;br&gt;&lt;/font&gt;" style="strokeColor=inherit;fillColor=inherit;gradientColor=inherit;strokeWidth=1;shadow=0;dashed=0;align=center;html=1;shape=mxgraph.mockup.rrect;rSize=0;fontSize=12;fontColor=#666666;fontStyle=1;resizeHeight=1;" parent="OzIiqpgJKj1dJZe_acPl-4" vertex="1">
          <mxGeometry width="47" height="28" relative="1" as="geometry">
            <mxPoint x="105" as="offset" />
          </mxGeometry>
        </mxCell>
        <mxCell id="OzIiqpgJKj1dJZe_acPl-6" value="&lt;p&gt;&lt;span style=&quot;color: rgb(0, 0, 0); font-size: 12px; font-weight: 400;&quot;&gt;wr(RIA)op := RR&lt;/span&gt;&lt;span style=&quot;color: rgb(0, 0, 0); font-size: 12px; font-weight: 400;&quot;&gt;&lt;br&gt;&lt;/span&gt;&lt;/p&gt;" style="strokeWidth=1;shadow=0;dashed=0;align=center;html=1;rSize=10;fontSize=17;fontColor=#666666;fontStyle=1;resizeHeight=1;" parent="OzIiqpgJKj1dJZe_acPl-4" vertex="1">
          <mxGeometry width="105" height="28" relative="1" as="geometry">
            <mxPoint as="offset" />
          </mxGeometry>
        </mxCell>
      </root>
    </mxGraphModel>
  </diagram>
</mxfile>
